<svg xmlns="http://www.w3.org/2000/svg" xmlns:xlink="http://www.w3.org/1999/xlink" width="106" height="26" viewBox="0 0 106 26">
    <defs>
        <path id="a" d="M0 .102h23.901V24H0z"/>
    </defs>
    <g fill="none" fill-rule="evenodd">
        <path fill="#222" d="M45.695 23.395l-3.926-7.347c2.345-1.137 3.592-3.21 3.592-5.815 0-4.168-2.975-7.227-8.335-7.227h-8.694v20.388h5.113V7.625h3.302c1.921 0 2.876.93 2.943 2.609a3.316 3.316 0 0 1-.28 1.49 3.401 3.401 0 0 1-.844 1.14 3.938 3.938 0 0 1-1.22.73c-.47.178-.963.259-1.464.262-.355 0-.708.007-1.063-.01l5.11 9.55h5.766zM97.243 23.395c2.574-.212 5.114-1.187 6.544-3.442.885-1.394 1.212-3.061 1.212-4.694V3.006H99.6L99.6 15.3c0 1.878-1.48 3.404-3.374 3.519-1.983.12-3.627-1.54-3.627-3.527 0 0 0-12.285-.002-12.286H87.2V15.26c0 1.557.296 3.144 1.093 4.498.706 1.2 1.778 2.133 3.033 2.729 1.816.862 3.931 1.073 5.918.909M74.943 15.448L70.339 3.006h-5.55l8.186 20.388h4.099L85.15 3.006h-5.572zM53.273 15.3h8.75v-4.349h-8.75V7.142h9.565V3.006h-14.78v20.389h14.78v-4.121h-9.565z"/>
        <g transform="translate(1 .898)">
            <mask id="b" fill="#fff">
                <use xlink:href="#a"/>
            </mask>
            <path fill="#5C19DD" d="M19.767 12.052c0 4.308-3.506 7.813-7.817 7.813-4.308 0-7.815-3.505-7.815-7.813 0-4.313 3.506-7.818 7.815-7.818 4.31 0 7.817 3.505 7.817 7.818M11.95.102C5.362.102 0 5.463 0 12.052 0 18.639 5.361 24 11.95 24 18.54 24 23.9 18.639 23.9 12.052c0-6.588-5.361-11.95-11.951-11.95" mask="url(#b)"/>
        </g>
        <path fill="#222" d="M17.36 11.755c-.664 1.206-2.272 1.687-3.557.762a2.305 2.305 0 0 1-.948-1.77c-.037-1.025.482-1.81 1.21-2.227.096-.055.073-.205-.035-.23a4.91 4.91 0 0 0-2.503.084 4.685 4.685 0 0 0-3.176 3.233 4.799 4.799 0 0 0 5.86 5.963c1.564-.399 2.826-1.627 3.3-3.169.283-.92.28-1.808.078-2.616-.027-.105-.176-.126-.23-.03"/>
    </g>
</svg>
